<svg width="5" height="19" viewBox="0 0 5 19" fill="none" xmlns="http://www.w3.org/2000/svg">
<path fill-rule="evenodd" clip-rule="evenodd" d="M2.875 4.25C3.97957 4.25 4.875 3.35457 4.875 2.25C4.875 1.14543 3.97957 0.25 2.875 0.25C1.77043 0.25 0.875 1.14543 0.875 2.25C0.875 3.35457 1.77043 4.25 2.875 4.25Z" fill="#CBD5E0"/>
<path fill-rule="evenodd" clip-rule="evenodd" d="M2.875 11.25C3.97957 11.25 4.875 10.3546 4.875 9.25C4.875 8.14543 3.97957 7.25 2.875 7.25C1.77043 7.25 0.875 8.14543 0.875 9.25C0.875 10.3546 1.77043 11.25 2.875 11.25Z" fill="#CBD5E0"/>
<path fill-rule="evenodd" clip-rule="evenodd" d="M2.875 18.25C3.97957 18.25 4.875 17.3546 4.875 16.25C4.875 15.1454 3.97957 14.25 2.875 14.25C1.77043 14.25 0.875 15.1454 0.875 16.25C0.875 17.3546 1.77043 18.25 2.875 18.25Z" fill="#CBD5E0"/>
</svg>
