<svg width="16" height="16" viewBox="0 0 16 16" fill="none" xmlns="http://www.w3.org/2000/svg">
<g clip-path="url(#clip0_891_850)">
<path d="M7.06801 0.727012C7.31101 -0.242988 8.68801 -0.242988 8.93201 0.727012L9.00301 1.01301C9.04455 1.17922 9.12982 1.33128 9.24995 1.45342C9.37009 1.57556 9.52072 1.66332 9.68622 1.7076C9.85172 1.75189 10.0261 1.75107 10.1911 1.70525C10.3562 1.65943 10.506 1.57026 10.625 1.44701L10.83 1.23601C11.525 0.517012 12.718 1.20601 12.443 2.16701L12.363 2.45101C12.3159 2.61566 12.3137 2.78991 12.3566 2.95569C12.3996 3.12148 12.4861 3.27276 12.6072 3.39385C12.7283 3.51495 12.8795 3.60144 13.0453 3.64438C13.2111 3.68731 13.3854 3.68511 13.55 3.63801L13.833 3.55701C14.793 3.28201 15.483 4.47501 14.764 5.17001L14.553 5.37501C14.4298 5.49401 14.3406 5.64381 14.2948 5.80889C14.2489 5.97397 14.2481 6.1483 14.2924 6.3138C14.3367 6.4793 14.4245 6.62993 14.5466 6.75007C14.6687 6.87021 14.8208 6.95547 14.987 6.99701L15.273 7.06801C16.243 7.31101 16.243 8.68801 15.273 8.93201L14.987 9.00301C14.8208 9.04455 14.6687 9.12982 14.5466 9.24995C14.4245 9.37009 14.3367 9.52072 14.2924 9.68622C14.2481 9.85172 14.2489 10.0261 14.2948 10.1911C14.3406 10.3562 14.4298 10.506 14.553 10.625L14.764 10.83C15.483 11.525 14.794 12.718 13.833 12.443L13.549 12.363C13.3844 12.3159 13.2101 12.3137 13.0443 12.3566C12.8785 12.3996 12.7273 12.4861 12.6062 12.6072C12.4851 12.7283 12.3986 12.8795 12.3556 13.0453C12.3127 13.2111 12.3149 13.3854 12.362 13.55L12.443 13.833C12.718 14.793 11.525 15.483 10.83 14.764L10.625 14.553C10.506 14.4298 10.3562 14.3406 10.1911 14.2948C10.0261 14.2489 9.85172 14.2481 9.68622 14.2924C9.52072 14.3367 9.37009 14.4245 9.24995 14.5466C9.12982 14.6687 9.04455 14.8208 9.00301 14.987L8.93201 15.273C8.68901 16.243 7.31201 16.243 7.06801 15.273L6.99701 14.987C6.95547 14.8208 6.87021 14.6687 6.75007 14.5466C6.62993 14.4245 6.4793 14.3367 6.3138 14.2924C6.1483 14.2481 5.97397 14.2489 5.80889 14.2948C5.64381 14.3406 5.49401 14.4298 5.37501 14.553L5.17001 14.764C4.47501 15.483 3.28201 14.794 3.55701 13.833L3.63701 13.549C3.68402 13.3845 3.68619 13.2103 3.6433 13.0447C3.6004 12.879 3.51401 12.7278 3.39305 12.6068C3.27209 12.4857 3.12098 12.3992 2.95535 12.3562C2.78972 12.3131 2.6156 12.3151 2.45101 12.362L2.16701 12.443C1.20701 12.718 0.517012 11.525 1.23601 10.83L1.44701 10.625C1.57026 10.506 1.65943 10.3562 1.70525 10.1911C1.75107 10.0261 1.75189 9.85172 1.7076 9.68622C1.66332 9.52072 1.57556 9.37009 1.45342 9.24995C1.33128 9.12982 1.17922 9.04455 1.01301 9.00301L0.727012 8.93201C-0.242988 8.68901 -0.242988 7.31201 0.727012 7.06801L1.01301 6.99701C1.17922 6.95547 1.33128 6.87021 1.45342 6.75007C1.57556 6.62993 1.66332 6.4793 1.7076 6.3138C1.75189 6.1483 1.75107 5.97397 1.70525 5.80889C1.65943 5.64381 1.57026 5.49401 1.44701 5.37501L1.23601 5.17001C0.517012 4.47501 1.20601 3.28201 2.16701 3.55701L2.45101 3.63701C2.61556 3.68402 2.78968 3.68619 2.95534 3.6433C3.12101 3.6004 3.2722 3.51401 3.39326 3.39305C3.51431 3.27209 3.60084 3.12098 3.64387 2.95535C3.6869 2.78972 3.68488 2.6156 3.63801 2.45101L3.55701 2.16701C3.28201 1.20701 4.47501 0.517012 5.17001 1.23601L5.37501 1.44701C5.49401 1.57026 5.64381 1.65943 5.80889 1.70525C5.97397 1.75107 6.1483 1.75189 6.3138 1.7076C6.4793 1.66332 6.62993 1.57556 6.75007 1.45342C6.87021 1.33128 6.95547 1.17922 6.99701 1.01301L7.06801 0.727012ZM12.973 8.50001H8.25001L5.41601 12.279C6.13789 12.715 6.95835 12.9613 7.80102 12.9948C8.64368 13.0284 9.48114 12.8482 10.2354 12.471C10.9897 12.0939 11.6363 11.5319 12.1149 10.8376C12.5936 10.1433 12.8888 9.33913 12.973 8.50001ZM12.973 7.50001C12.8888 6.6609 12.5936 5.85674 12.1149 5.16241C11.6363 4.46809 10.9897 3.90617 10.2354 3.52898C9.48114 3.15179 8.64368 2.9716 7.80102 3.00517C6.95835 3.03875 6.13789 3.285 5.41601 3.72101L8.25001 7.50101H12.973V7.50001ZM5.04801 3.96701C5.01801 3.98801 4.99001 4.01001 4.96101 4.03201L5.04801 3.96701ZM4.61701 4.32201C4.10738 4.78948 3.7006 5.3579 3.42256 5.9911C3.14452 6.62431 3.0013 7.30845 3.00201 8.00001C3.00201 9.45501 3.62401 10.765 4.61701 11.678L7.37501 8.00001L4.61701 4.32201ZM4.96101 11.968L5.04801 12.033L4.96101 11.968Z" fill="#8492A6"/>
</g>
<defs>
<clipPath id="clip0_891_850">
<rect width="16" height="16" fill="white"/>
</clipPath>
</defs>
</svg>
