<svg width="10" height="10" viewBox="0 0 10 10" fill="none" xmlns="http://www.w3.org/2000/svg">
<path fill-rule="evenodd" clip-rule="evenodd" d="M9.51221 1.4268L6.52821 5.00747L9.40488 8.58214C9.63554 8.8688 9.59021 9.28814 9.30354 9.51947C9.18021 9.6188 9.03221 9.6668 8.88554 9.6668C8.69088 9.6668 8.49755 9.58147 8.36555 9.41814L5.14688 5.41814C4.94821 5.1708 4.95088 4.8168 5.15421 4.57347L8.48755 0.573469C8.72355 0.290135 9.14355 0.252802 9.42688 0.488135C9.70955 0.723469 9.74755 1.14414 9.51221 1.4268ZM3.82128 0.573277C4.05661 0.290611 4.47661 0.252611 4.75995 0.487944C5.04261 0.723944 5.08061 1.14394 4.84528 1.42661L1.86128 5.00728L4.73795 8.58194C4.96861 8.86861 4.92328 9.28861 4.63661 9.51928C4.51328 9.61861 4.36595 9.66661 4.21861 9.66661C4.02395 9.66661 3.83061 9.58194 3.69928 9.41794L0.480612 5.41794C0.281278 5.17061 0.284612 4.81728 0.487945 4.57328L3.82128 0.573277Z" fill="#718096"/>
</svg>
