<svg width="10" height="10" viewBox="0 0 10 10" fill="none" xmlns="http://www.w3.org/2000/svg">
<path fill-rule="evenodd" clip-rule="evenodd" d="M6.30081 0.581993L9.51947 4.58199C9.71881 4.82933 9.71548 5.18266 9.51214 5.42666L6.17881 9.42666C6.04681 9.58466 5.85748 9.66666 5.66614 9.66666C5.51614 9.66666 5.36481 9.61599 5.24014 9.51199C4.95681 9.27666 4.91881 8.85599 5.15481 8.57333L8.13881 4.99266L5.26148 1.41799C5.03081 1.13133 5.07614 0.711326 5.36348 0.480659C5.65014 0.249326 6.06948 0.295326 6.30081 0.581993ZM0.696742 0.480799C0.983409 0.250132 1.40274 0.295466 1.63408 0.582132L4.85274 4.58213C5.05141 4.82947 5.04874 5.1828 4.84541 5.4268L1.51208 9.4268C1.38008 9.5848 1.19074 9.6668 0.999409 9.6668C0.849409 9.6668 0.698075 9.61613 0.573409 9.51213C0.290075 9.2768 0.252075 8.85613 0.488075 8.57347L3.47141 4.9928L0.594742 1.41813C0.364075 1.13147 0.410075 0.711466 0.696742 0.480799Z" fill="#718096"/>
</svg>
