<svg width="14" height="12" viewBox="0 0 14 12" fill="none" xmlns="http://www.w3.org/2000/svg">
<path d="M9.44125 10.298L8.029 8.88487C7.48286 9.08013 6.8925 9.11629 6.32662 8.98915C5.76073 8.862 5.24259 8.57677 4.83247 8.16666C4.42235 7.75654 4.13712 7.23839 4.00998 6.6725C3.88283 6.10662 3.91899 5.51626 4.11425 4.97012L2.31175 3.16762C0.82075 4.49325 0 6 0 6C0 6 2.625 10.8125 7 10.8125C7.84035 10.8096 8.6712 10.6345 9.44125 10.298ZM4.55875 1.702C5.3288 1.36549 6.15964 1.19039 7 1.1875C11.375 1.1875 14 6 14 6C14 6 13.1784 7.50587 11.6891 8.83325L9.88488 7.029C10.0801 6.48286 10.1163 5.8925 9.98915 5.32661C9.862 4.76073 9.57678 4.24258 9.16666 3.83246C8.75654 3.42235 8.23839 3.13712 7.67251 3.00997C7.10662 2.88283 6.51626 2.91899 5.97013 3.11425L4.55875 1.702Z" fill="#A0AEC0"/>
<path d="M4.83437 5.69025C4.78624 6.02652 4.81709 6.36938 4.92447 6.69166C5.03185 7.01394 5.21281 7.30678 5.45301 7.54699C5.69321 7.78719 5.98606 7.96815 6.30834 8.07553C6.63062 8.18291 6.97348 8.21375 7.30975 8.16562L4.83437 5.69025ZM9.16563 6.30975L6.69025 3.8335C7.02652 3.78537 7.36938 3.81621 7.69166 3.92359C8.01394 4.03097 8.30679 4.21193 8.54699 4.45213C8.78719 4.69233 8.96815 4.98518 9.07553 5.30746C9.18291 5.62974 9.21376 5.9726 9.16563 6.30887V6.30975ZM11.9403 11.5597L1.44025 1.05975L2.05975 0.440247L12.5597 10.9402L11.9403 11.5597Z" fill="#A0AEC0"/>
</svg>
