<svg width="10" height="10" viewBox="0 0 10 10" fill="none" xmlns="http://www.w3.org/2000/svg">
<path d="M3.96154 7.07377V9.5003C3.96154 9.59211 3.92507 9.68016 3.86015 9.74507C3.79524 9.80999 3.70719 9.84646 3.61538 9.84646H0.846154C0.754349 9.84646 0.666303 9.80999 0.601387 9.74507C0.53647 9.68016 0.5 9.59211 0.5 9.5003V4.65415C0.499919 4.60866 0.508804 4.56361 0.526148 4.52155C0.543491 4.4795 0.568953 4.44128 0.601077 4.40907L4.75492 0.25523C4.78708 0.222994 4.82528 0.197418 4.86733 0.179967C4.90938 0.162516 4.95447 0.153534 5 0.153534C5.04553 0.153534 5.09061 0.162516 5.13267 0.179967C5.17472 0.197418 5.21292 0.222994 5.24508 0.25523L7.07692 2.08777L8.46154 3.47238L9.39892 4.40907C9.43105 4.44128 9.45651 4.4795 9.47385 4.52155C9.4912 4.56361 9.50008 4.60866 9.5 4.65415V9.5003C9.5 9.59211 9.46353 9.68016 9.39861 9.74507C9.3337 9.80999 9.24565 9.84646 9.15385 9.84646H6.38462C6.29281 9.84646 6.20476 9.80999 6.13985 9.74507C6.07493 9.68016 6.03846 9.59211 6.03846 9.5003V7.07723C6.03846 6.90415 5.86538 6.73107 5.69231 6.73107H4.30769C4.13462 6.73107 3.96154 6.90415 3.96154 7.07377Z" fill="#A0AEC0"/>
</svg>
