<svg width="12" height="12" viewBox="0 0 12 12" fill="none" xmlns="http://www.w3.org/2000/svg">
<path d="M0.75 2.0625C0.75 1.7144 0.888281 1.38056 1.13442 1.13442C1.38056 0.888281 1.7144 0.75 2.0625 0.75L9.9375 0.75C10.2856 0.75 10.6194 0.888281 10.8656 1.13442C11.1117 1.38056 11.25 1.7144 11.25 2.0625V9.9375C11.25 10.2856 11.1117 10.6194 10.8656 10.8656C10.6194 11.1117 10.2856 11.25 9.9375 11.25H2.0625C1.7144 11.25 1.38056 11.1117 1.13442 10.8656C0.888281 10.6194 0.75 10.2856 0.75 9.9375V2.0625ZM10.5938 3.375H7.96875V5.34375H10.5938V3.375ZM10.5938 6H7.96875V7.96875H10.5938V6ZM10.5938 8.625H7.96875V10.5938H9.9375C10.1115 10.5938 10.2785 10.5246 10.4015 10.4015C10.5246 10.2785 10.5938 10.1115 10.5938 9.9375V8.625ZM7.3125 10.5938V8.625H4.6875V10.5938H7.3125ZM4.03125 10.5938V8.625H1.40625V9.9375C1.40625 10.1115 1.47539 10.2785 1.59846 10.4015C1.72153 10.5246 1.88845 10.5938 2.0625 10.5938H4.03125ZM1.40625 7.96875H4.03125V6H1.40625V7.96875ZM1.40625 5.34375H4.03125V3.375H1.40625V5.34375ZM4.6875 3.375V5.34375H7.3125V3.375H4.6875ZM7.3125 6H4.6875V7.96875H7.3125V6Z" fill="#718096"/>
</svg>
