<svg width="17" height="16" viewBox="0 0 17 16" fill="none" xmlns="http://www.w3.org/2000/svg">
<path d="M13.3334 5.33331V3.33331C13.3334 2.22874 12.4379 1.33331 11.3334 1.33331H4.66669C3.56212 1.33331 2.66669 2.22874 2.66669 3.33331V12.6666C2.66669 13.7712 3.56212 14.6666 4.66669 14.6666H11.3334C12.4379 14.6666 13.3334 13.7712 13.3334 12.6666V12" stroke="#A0AEC0" stroke-linecap="round"/>
<path d="M1.83333 2V2C1.51117 2 1.25 2.26117 1.25 2.58333V14.25C1.25 14.8483 1.73502 15.3333 2.33333 15.3333V15.3333" stroke="#A0AEC0" stroke-linecap="round"/>
<line x1="5.16669" y1="5.16669" x2="10.8334" y2="5.16669" stroke="#A0AEC0" stroke-linecap="round"/>
<line x1="5.16669" y1="6.5" x2="8.83335" y2="6.5" stroke="#A0AEC0" stroke-linecap="round"/>
<line x1="5.16669" y1="7.83331" x2="8.16669" y2="7.83331" stroke="#A0AEC0" stroke-linecap="round"/>
<line x1="5.16669" y1="11.8333" x2="7.50002" y2="11.8333" stroke="#A0AEC0" stroke-linecap="round"/>
<line x1="5.16669" y1="9.16669" x2="6.83335" y2="9.16669" stroke="#A0AEC0" stroke-linecap="round"/>
<line x1="5.16669" y1="10.5" x2="5.50002" y2="10.5" stroke="#A0AEC0" stroke-linecap="round"/>
<line x1="6.83331" y1="10.5" x2="7.16665" y2="10.5" stroke="#A0AEC0" stroke-linecap="round"/>
<path fill-rule="evenodd" clip-rule="evenodd" d="M8 9C8 8.88636 8.05267 8.77737 8.14643 8.69701C8.24019 8.61665 8.36735 8.57151 8.49994 8.57151H14.2923L12.1455 6.73241C12.0991 6.69257 12.0622 6.64527 12.037 6.59322C12.0119 6.54117 11.9989 6.48538 11.9989 6.42904C11.9989 6.37269 12.0119 6.3169 12.037 6.26485C12.0622 6.2128 12.0991 6.1655 12.1455 6.12566C12.192 6.08582 12.2472 6.05422 12.3079 6.03266C12.3687 6.0111 12.4338 6 12.4995 6C12.5652 6 12.6303 6.0111 12.6911 6.03266C12.7518 6.05422 12.807 6.08582 12.8535 6.12566L15.8531 8.69663C15.8997 8.73643 15.9366 8.78371 15.9618 8.83577C15.987 8.88783 16 8.94364 16 9C16 9.05636 15.987 9.11217 15.9618 9.16423C15.9366 9.21629 15.8997 9.26357 15.8531 9.30337L12.8535 11.8743C12.7596 11.9548 12.6323 12 12.4995 12C12.3667 12 12.2394 11.9548 12.1455 11.8743C12.0517 11.7939 11.9989 11.6848 11.9989 11.571C11.9989 11.4572 12.0517 11.3481 12.1455 11.2676L14.2923 9.42849H8.49994C8.36735 9.42849 8.24019 9.38335 8.14643 9.30299C8.05267 9.22263 8 9.11364 8 9Z" fill="#718096" stroke="#425466" stroke-width="0.5"/>
<rect x="4" y="2.33331" width="8" height="1.66667" rx="0.833333" fill="#A0AEC0"/>
</svg>
