<svg width="6" height="12" viewBox="0 0 6 12" fill="none" xmlns="http://www.w3.org/2000/svg">
<path d="M2.5 1.5C2.5 1.76522 2.39464 2.01957 2.20711 2.20711C2.01957 2.39464 1.76522 2.5 1.5 2.5C1.23478 2.5 0.98043 2.39464 0.792893 2.20711C0.605357 2.01957 0.5 1.76522 0.5 1.5C0.5 1.23478 0.605357 0.98043 0.792893 0.792893C0.98043 0.605357 1.23478 0.5 1.5 0.5C1.76522 0.5 2.01957 0.605357 2.20711 0.792893C2.39464 0.98043 2.5 1.23478 2.5 1.5ZM5.5 1.5C5.5 1.76522 5.39464 2.01957 5.20711 2.20711C5.01957 2.39464 4.76522 2.5 4.5 2.5C4.23478 2.5 3.98043 2.39464 3.79289 2.20711C3.60536 2.01957 3.5 1.76522 3.5 1.5C3.5 1.23478 3.60536 0.98043 3.79289 0.792893C3.98043 0.605357 4.23478 0.5 4.5 0.5C4.76522 0.5 5.01957 0.605357 5.20711 0.792893C5.39464 0.98043 5.5 1.23478 5.5 1.5ZM2.5 4.5C2.5 4.76522 2.39464 5.01957 2.20711 5.20711C2.01957 5.39464 1.76522 5.5 1.5 5.5C1.23478 5.5 0.98043 5.39464 0.792893 5.20711C0.605357 5.01957 0.5 4.76522 0.5 4.5C0.5 4.23478 0.605357 3.98043 0.792893 3.79289C0.98043 3.60536 1.23478 3.5 1.5 3.5C1.76522 3.5 2.01957 3.60536 2.20711 3.79289C2.39464 3.98043 2.5 4.23478 2.5 4.5ZM5.5 4.5C5.5 4.76522 5.39464 5.01957 5.20711 5.20711C5.01957 5.39464 4.76522 5.5 4.5 5.5C4.23478 5.5 3.98043 5.39464 3.79289 5.20711C3.60536 5.01957 3.5 4.76522 3.5 4.5C3.5 4.23478 3.60536 3.98043 3.79289 3.79289C3.98043 3.60536 4.23478 3.5 4.5 3.5C4.76522 3.5 5.01957 3.60536 5.20711 3.79289C5.39464 3.98043 5.5 4.23478 5.5 4.5ZM2.5 7.5C2.5 7.76522 2.39464 8.01957 2.20711 8.20711C2.01957 8.39464 1.76522 8.5 1.5 8.5C1.23478 8.5 0.98043 8.39464 0.792893 8.20711C0.605357 8.01957 0.5 7.76522 0.5 7.5C0.5 7.23478 0.605357 6.98043 0.792893 6.79289C0.98043 6.60536 1.23478 6.5 1.5 6.5C1.76522 6.5 2.01957 6.60536 2.20711 6.79289C2.39464 6.98043 2.5 7.23478 2.5 7.5ZM5.5 7.5C5.5 7.76522 5.39464 8.01957 5.20711 8.20711C5.01957 8.39464 4.76522 8.5 4.5 8.5C4.23478 8.5 3.98043 8.39464 3.79289 8.20711C3.60536 8.01957 3.5 7.76522 3.5 7.5C3.5 7.23478 3.60536 6.98043 3.79289 6.79289C3.98043 6.60536 4.23478 6.5 4.5 6.5C4.76522 6.5 5.01957 6.60536 5.20711 6.79289C5.39464 6.98043 5.5 7.23478 5.5 7.5ZM2.5 10.5C2.5 10.7652 2.39464 11.0196 2.20711 11.2071C2.01957 11.3946 1.76522 11.5 1.5 11.5C1.23478 11.5 0.98043 11.3946 0.792893 11.2071C0.605357 11.0196 0.5 10.7652 0.5 10.5C0.5 10.2348 0.605357 9.98043 0.792893 9.79289C0.98043 9.60536 1.23478 9.5 1.5 9.5C1.76522 9.5 2.01957 9.60536 2.20711 9.79289C2.39464 9.98043 2.5 10.2348 2.5 10.5ZM5.5 10.5C5.5 10.7652 5.39464 11.0196 5.20711 11.2071C5.01957 11.3946 4.76522 11.5 4.5 11.5C4.23478 11.5 3.98043 11.3946 3.79289 11.2071C3.60536 11.0196 3.5 10.7652 3.5 10.5C3.5 10.2348 3.60536 9.98043 3.79289 9.79289C3.98043 9.60536 4.23478 9.5 4.5 9.5C4.76522 9.5 5.01957 9.60536 5.20711 9.79289C5.39464 9.98043 5.5 10.2348 5.5 10.5Z" fill="#CBD5E0"/>
</svg>
