<svg width="12" height="13" viewBox="0 0 12 13" fill="none" xmlns="http://www.w3.org/2000/svg">
<path d="M9.94008 8.33333C9.62142 10.222 7.97808 11.6667 6.00008 11.6667C3.79475 11.6667 2.00008 9.872 2.00008 7.66667C2.00008 5.46133 3.79475 3.66667 6.00008 3.66667H7.44808L6.05742 5.05733L7.00008 6L10.0001 3L7.00008 0L6.05742 0.942667L7.44808 2.33333H6.00008C4.58559 2.33333 3.22904 2.89524 2.22885 3.89543C1.22865 4.89562 0.666748 6.25218 0.666748 7.66667C0.666748 9.08115 1.22865 10.4377 2.22885 11.4379C3.22904 12.4381 4.58559 13 6.00008 13C8.71941 13 10.9587 10.9633 11.2874 8.33333H9.94008Z" fill="#A0AEC0"/>
</svg>
