<svg width="6" height="8" viewBox="0 0 6 8" fill="none" xmlns="http://www.w3.org/2000/svg">
<path fill-rule="evenodd" clip-rule="evenodd" d="M0.936333 0.0903551C0.964911 0.0617042 0.998862 0.0389728 1.03624 0.0234629C1.07362 0.00795307 1.11369 -3.05176e-05 1.15415 -3.05176e-05C1.19462 -3.05176e-05 1.23469 0.00795307 1.27207 0.0234629C1.30945 0.0389728 1.3434 0.0617042 1.37197 0.0903551L5.06385 3.78223C5.0925 3.81081 5.11523 3.84476 5.13074 3.88214C5.14625 3.91951 5.15423 3.95958 5.15423 4.00005C5.15423 4.04052 5.14625 4.08059 5.13074 4.11796C5.11523 4.15534 5.0925 4.18929 5.06385 4.21787L1.37197 7.90975C1.3142 7.96752 1.23585 7.99997 1.15415 7.99997C1.07245 7.99997 0.994102 7.96752 0.936333 7.90975C0.878563 7.85198 0.846108 7.77362 0.846108 7.69193C0.846108 7.61023 0.878563 7.53187 0.936333 7.4741L4.411 4.00005L0.936333 0.525996C0.907682 0.497418 0.88495 0.463468 0.86944 0.42609C0.853931 0.388713 0.845947 0.348643 0.845947 0.308176C0.845947 0.267708 0.853931 0.227638 0.86944 0.190261C0.88495 0.152884 0.907682 0.118934 0.936333 0.0903551Z" fill="#A0AEC0"/>
</svg>
