<svg width="12" height="12" viewBox="0 0 12 12" fill="none" xmlns="http://www.w3.org/2000/svg">
<path d="M0.75 1.875C0.75 1.57663 0.868526 1.29048 1.0795 1.0795C1.29048 0.868526 1.57663 0.75 1.875 0.75H4.125C4.42337 0.75 4.70952 0.868526 4.9205 1.0795C5.13147 1.29048 5.25 1.57663 5.25 1.875V4.125C5.25 4.42337 5.13147 4.70952 4.9205 4.9205C4.70952 5.13147 4.42337 5.25 4.125 5.25H1.875C1.57663 5.25 1.29048 5.13147 1.0795 4.9205C0.868526 4.70952 0.75 4.42337 0.75 4.125V1.875ZM1.875 1.5C1.77554 1.5 1.68016 1.53951 1.60984 1.60984C1.53951 1.68016 1.5 1.77554 1.5 1.875V4.125C1.5 4.22446 1.53951 4.31984 1.60984 4.39016C1.68016 4.46049 1.77554 4.5 1.875 4.5H4.125C4.22446 4.5 4.31984 4.46049 4.39016 4.39016C4.46049 4.31984 4.5 4.22446 4.5 4.125V1.875C4.5 1.77554 4.46049 1.68016 4.39016 1.60984C4.31984 1.53951 4.22446 1.5 4.125 1.5H1.875ZM6.75 1.875C6.75 1.57663 6.86853 1.29048 7.0795 1.0795C7.29048 0.868526 7.57663 0.75 7.875 0.75H10.125C10.4234 0.75 10.7095 0.868526 10.9205 1.0795C11.1315 1.29048 11.25 1.57663 11.25 1.875V4.125C11.25 4.42337 11.1315 4.70952 10.9205 4.9205C10.7095 5.13147 10.4234 5.25 10.125 5.25H7.875C7.57663 5.25 7.29048 5.13147 7.0795 4.9205C6.86853 4.70952 6.75 4.42337 6.75 4.125V1.875ZM7.875 1.5C7.77554 1.5 7.68016 1.53951 7.60983 1.60984C7.53951 1.68016 7.5 1.77554 7.5 1.875V4.125C7.5 4.22446 7.53951 4.31984 7.60983 4.39016C7.68016 4.46049 7.77554 4.5 7.875 4.5H10.125C10.2245 4.5 10.3198 4.46049 10.3902 4.39016C10.4605 4.31984 10.5 4.22446 10.5 4.125V1.875C10.5 1.77554 10.4605 1.68016 10.3902 1.60984C10.3198 1.53951 10.2245 1.5 10.125 1.5H7.875ZM0.75 7.875C0.75 7.57663 0.868526 7.29048 1.0795 7.0795C1.29048 6.86853 1.57663 6.75 1.875 6.75H4.125C4.42337 6.75 4.70952 6.86853 4.9205 7.0795C5.13147 7.29048 5.25 7.57663 5.25 7.875V10.125C5.25 10.4234 5.13147 10.7095 4.9205 10.9205C4.70952 11.1315 4.42337 11.25 4.125 11.25H1.875C1.57663 11.25 1.29048 11.1315 1.0795 10.9205C0.868526 10.7095 0.75 10.4234 0.75 10.125V7.875ZM1.875 7.5C1.77554 7.5 1.68016 7.53951 1.60984 7.60983C1.53951 7.68016 1.5 7.77554 1.5 7.875V10.125C1.5 10.2245 1.53951 10.3198 1.60984 10.3902C1.68016 10.4605 1.77554 10.5 1.875 10.5H4.125C4.22446 10.5 4.31984 10.4605 4.39016 10.3902C4.46049 10.3198 4.5 10.2245 4.5 10.125V7.875C4.5 7.77554 4.46049 7.68016 4.39016 7.60983C4.31984 7.53951 4.22446 7.5 4.125 7.5H1.875ZM6.75 7.875C6.75 7.57663 6.86853 7.29048 7.0795 7.0795C7.29048 6.86853 7.57663 6.75 7.875 6.75H10.125C10.4234 6.75 10.7095 6.86853 10.9205 7.0795C11.1315 7.29048 11.25 7.57663 11.25 7.875V10.125C11.25 10.4234 11.1315 10.7095 10.9205 10.9205C10.7095 11.1315 10.4234 11.25 10.125 11.25H7.875C7.57663 11.25 7.29048 11.1315 7.0795 10.9205C6.86853 10.7095 6.75 10.4234 6.75 10.125V7.875ZM7.875 7.5C7.77554 7.5 7.68016 7.53951 7.60983 7.60983C7.53951 7.68016 7.5 7.77554 7.5 7.875V10.125C7.5 10.2245 7.53951 10.3198 7.60983 10.3902C7.68016 10.4605 7.77554 10.5 7.875 10.5H10.125C10.2245 10.5 10.3198 10.4605 10.3902 10.3902C10.4605 10.3198 10.5 10.2245 10.5 10.125V7.875C10.5 7.77554 10.4605 7.68016 10.3902 7.60983C10.3198 7.53951 10.2245 7.5 10.125 7.5H7.875Z" fill="#A0AEC0"/>
</svg>
