<svg width="12" height="12" viewBox="0 0 12 12" fill="none" xmlns="http://www.w3.org/2000/svg">
<path fill-rule="evenodd" clip-rule="evenodd" d="M4.36587 7.63411C4.29533 7.56358 4.19966 7.52397 4.09991 7.52397C4.00017 7.52397 3.9045 7.56358 3.83396 7.63411L0.752328 10.7157V8.63323C0.752328 8.53346 0.712695 8.43778 0.642149 8.36723C0.571602 8.29669 0.475921 8.25705 0.376153 8.25705C0.276385 8.25705 0.180703 8.29669 0.110156 8.36723C0.0396098 8.43778 -2.28882e-05 8.53346 -2.28882e-05 8.63323V11.6238C-2.28882e-05 11.7236 0.0396098 11.8193 0.110156 11.8898C0.180703 11.9604 0.276385 12 0.376153 12H3.36675C3.46652 12 3.5622 11.9604 3.63274 11.8898C3.70329 11.8193 3.74292 11.7236 3.74292 11.6238C3.74292 11.5241 3.70329 11.4284 3.63274 11.3578C3.5622 11.2873 3.46652 11.2476 3.36675 11.2476H1.28424L4.36587 8.16602C4.43639 8.09548 4.47601 7.99981 4.47601 7.90006C4.47601 7.80031 4.43639 7.70465 4.36587 7.63411ZM7.63408 4.36589C7.70463 4.43642 7.80029 4.47603 7.90004 4.47603C7.99979 4.47603 8.09545 4.43642 8.166 4.36589L11.2476 1.28426V3.36677C11.2476 3.46654 11.2873 3.56222 11.3578 3.63277C11.4284 3.70331 11.524 3.74295 11.6238 3.74295C11.7236 3.74295 11.8193 3.70331 11.8898 3.63277C11.9603 3.56222 12 3.46654 12 3.36677V0.376175C12 0.276408 11.9603 0.180726 11.8898 0.110179C11.8193 0.0396327 11.7236 0 11.6238 0H8.63321C8.53344 1.48666e-09 8.43776 0.0396327 8.36721 0.110179C8.29666 0.180726 8.25703 0.276408 8.25703 0.376175C8.25703 0.475943 8.29666 0.571625 8.36721 0.642172C8.43776 0.712718 8.53344 0.752351 8.63321 0.752351H10.7157L7.63408 3.83398C7.56356 3.90452 7.52394 4.00019 7.52394 4.09994C7.52394 4.19969 7.56356 4.29535 7.63408 4.36589Z" fill="#718096"/>
</svg>
