<svg width="14" height="14" viewBox="0 0 14 14" fill="none" xmlns="http://www.w3.org/2000/svg">
<g clip-path="url(#clip0_1364_4106)">
<path d="M14 4.11604C14 4.74137 13.8889 5.34571 13.6667 5.92904C13.4444 6.51237 13.1363 7.02337 12.7421 7.46204L7.10692 13.678L6.32704 12.824L11.9623 6.60804C12.5828 5.93604 12.8931 5.10537 12.8931 4.11604C12.8931 3.28537 12.6478 2.59704 12.1572 2.05104C11.6667 1.50504 11.0482 1.23204 10.3019 1.23204C9.44654 1.23204 8.69182 1.58204 8.03774 2.28204L1.83648 9.12804C1.34172 9.67871 1.09434 10.2994 1.09434 10.99C1.09434 11.522 1.24948 11.9584 1.55975 12.299C1.87002 12.6397 2.26415 12.81 2.74214 12.81C3.37107 12.81 3.93291 12.5347 4.42767 11.984L9.16981 6.77604C9.61425 6.2627 9.83648 5.81004 9.83648 5.41804C9.83648 5.22204 9.76939 5.06804 9.63522 4.95604C9.50105 4.84404 9.34172 4.78804 9.15723 4.78804C8.75472 4.78804 8.39413 4.9747 8.07547 5.34804L3.79874 10.052L3.03145 9.19804L7.2956 4.49404C7.84906 3.87804 8.4696 3.57004 9.15723 3.57004C9.64361 3.57004 10.0629 3.7427 10.4151 4.08804C10.7673 4.43337 10.9434 4.87204 10.9434 5.40404C10.9434 6.13204 10.6122 6.87404 9.94969 7.63004L5.20755 12.838C4.50314 13.622 3.68134 14.014 2.74214 14.014C1.96226 14.014 1.31027 13.727 0.786164 13.153C0.262054 12.579 0 11.858 0 10.99C0 9.96337 0.352201 9.05804 1.0566 8.27404L7.25786 1.42804C8.12998 0.485371 9.14465 0.0140381 10.3019 0.0140381C11.3501 0.0140381 12.2285 0.406038 12.9371 1.19004C13.6457 1.97404 14 2.94937 14 4.11604Z" fill="white"/>
</g>
<defs>
<clipPath id="clip0_1364_4106">
<rect width="14" height="14" fill="white"/>
</clipPath>
</defs>
</svg>
