<svg width="12" height="16" viewBox="0 0 12 16" fill="none" xmlns="http://www.w3.org/2000/svg">
<path fill-rule="evenodd" clip-rule="evenodd" d="M7 4.25V0H0.75C0.334375 0 0 0.334375 0 0.75V15.25C0 15.6656 0.334375 16 0.75 16H11.25C11.6656 16 12 15.6656 12 15.25V5H7.75C7.3375 5 7 4.6625 7 4.25ZM8.87813 7.57812L7 10.5L8.87813 13.4219C9.0375 13.6719 8.85938 14 8.5625 14H7.47188C7.33438 14 7.20625 13.925 7.14062 13.8031C6.52812 12.6719 6 11.6562 6 11.6562C5.85881 11.9827 5.76123 12.1597 5.4236 12.7721L5.42354 12.7722C5.28292 13.0273 5.10065 13.3579 4.85625 13.8062C4.79063 13.9281 4.66563 14.0031 4.52813 14.0031H3.4375C3.14063 14.0031 2.9625 13.675 3.12188 13.425L5.00625 10.5031L3.12188 7.58125C2.95938 7.33125 3.14063 7.00312 3.4375 7.00312H4.525C4.6625 7.00312 4.79063 7.07812 4.85625 7.2C5.20788 7.85745 5.37248 8.14318 5.48754 8.34289C5.63936 8.60643 5.70489 8.72018 6 9.34062C6 9.34062 6.19063 8.975 7.14375 7.2C7.20938 7.07812 7.3375 7.00312 7.475 7.00312H8.5625C8.85938 7 9.0375 7.32812 8.87813 7.57812ZM12 4V3.80938C12 3.6125 11.9219 3.42188 11.7812 3.28125L8.72188 0.21875C8.58125 0.078125 8.39062 0 8.19063 0H8V4H12Z" fill="#239F85"/>
</svg>
