<svg width="12" height="12" viewBox="0 0 12 12" fill="none" xmlns="http://www.w3.org/2000/svg">
<path d="M6.1875 11.25C6.1875 11.25 10.125 7.51856 10.125 4.6875C10.125 3.64321 9.71016 2.64169 8.97173 1.90327C8.23331 1.16484 7.23179 0.75 6.1875 0.75C5.14321 0.75 4.14169 1.16484 3.40327 1.90327C2.66484 2.64169 2.25 3.64321 2.25 4.6875C2.25 7.51856 6.1875 11.25 6.1875 11.25ZM6.1875 6.65625C5.66535 6.65625 5.1646 6.44883 4.79538 6.07962C4.42617 5.7104 4.21875 5.20964 4.21875 4.6875C4.21875 4.16535 4.42617 3.6646 4.79538 3.29538C5.1646 2.92617 5.66535 2.71875 6.1875 2.71875C6.70964 2.71875 7.2104 2.92617 7.57962 3.29538C7.94883 3.6646 8.15625 4.16535 8.15625 4.6875C8.15625 5.20964 7.94883 5.7104 7.57962 6.07962C7.2104 6.44883 6.70964 6.65625 6.1875 6.65625Z" fill="#718096"/>
</svg>
