<svg width="16" height="17" viewBox="0 0 16 17" fill="none" xmlns="http://www.w3.org/2000/svg">
<rect x="0.5" y="1" width="15" height="15" rx="3.5" fill="#E2E8F0"/>
<mask id="path-2-inside-1_816_19145" fill="white">
<path d="M11.5 9H4.5V8H11.5V9Z"/>
</mask>
<path d="M11.5 9H4.5V8H11.5V9Z" fill="#718096"/>
<path d="M11.5 9V10H12.5V9H11.5ZM4.5 9H3.5V10H4.5V9ZM4.5 8V7H3.5V8H4.5ZM11.5 8H12.5V7H11.5V8ZM11.5 8H4.5V10H11.5V8ZM5.5 9V8H3.5V9H5.5ZM4.5 9H11.5V7H4.5V9ZM10.5 8V9H12.5V8H10.5Z" fill="#1A202C" mask="url(#path-2-inside-1_816_19145)"/>
<rect x="0.5" y="1" width="15" height="15" rx="3.5" stroke="#A0AEC0"/>
</svg>
